<svg width="354" height="276" viewBox="0 0 354 276" fill="none" xmlns="http://www.w3.org/2000/svg">
<g filter="url(#filter0_d_258_126)">
<path d="M214.585 33.5445C214.585 33.5445 201.996 35.6315 197.907 36.3542L212.063 37.2241C212.063 37.2241 214.258 36.3887 214.585 33.5445Z" fill="#2A0867"/>
<path d="M296.713 45.1607L276.351 43.9644" stroke="#292537" stroke-width="1.65253" stroke-miterlimit="10" stroke-linecap="round"/>
<path d="M276.351 43.9644L297.7 49.3473" stroke="#292537" stroke-width="1.65253" stroke-miterlimit="10" stroke-linecap="round"/>
<path d="M296.317 58.9808L283.179 57.0364" stroke="#282828" stroke-width="3.63557" stroke-miterlimit="10" stroke-linecap="round"/>
<path d="M298.366 48.3538L281.949 49.5974" stroke="#292537" stroke-width="1.65253" stroke-miterlimit="10" stroke-linecap="round"/>
<path d="M297.485 52.7538L284.095 51.6047" stroke="#292537" stroke-width="1.65253" stroke-miterlimit="10" stroke-linecap="round"/>
<path d="M296.601 57.5784L284.095 51.6047" stroke="#292537" stroke-width="1.65253" stroke-miterlimit="10" stroke-linecap="round"/>
<path d="M296.317 58.9808L281.248 60.4194" stroke="#282828" stroke-width="2.64405" stroke-miterlimit="10" stroke-linecap="round"/>
<path d="M175.923 139.797L147.572 128" stroke="#292537" stroke-width="10.2457" stroke-miterlimit="10" stroke-linecap="round"/>
<path d="M179.791 128.038L160.99 121.047" stroke="#292537" stroke-width="3.30506" stroke-miterlimit="10" stroke-linecap="round"/>
<path d="M182.66 120.643L168.98 116.635" stroke="#292537" stroke-width="3.30506" stroke-miterlimit="10" stroke-linecap="round"/>
<path d="M178.127 139.573L149.775 127.776" stroke="#D8D8D8" stroke-width="1.32202" stroke-miterlimit="10" stroke-linecap="round"/>
<path d="M180.273 127.839L161.472 120.849" stroke="#D8D8D8" stroke-width="0.661012" stroke-miterlimit="10" stroke-linecap="round"/>
<path d="M183.252 120.485L169.571 116.478" stroke="#D8D8D8" stroke-width="0.661012" stroke-miterlimit="10" stroke-linecap="round"/>
<path d="M296.825 63.3503L280.047 61.2041" stroke="#282828" stroke-width="7.27114" stroke-miterlimit="10" stroke-linecap="round"/>
<path d="M298.07 63.1599L279.338 67.9061" stroke="#282828" stroke-width="7.27114" stroke-miterlimit="10" stroke-linecap="round"/>
<path d="M104.166 232.517L26.9076 141.266C26.9076 141.266 30.4302 137.688 36.2739 135.01C42.116 132.333 46.3519 131.097 46.9843 130.795C47.6167 130.492 49.3342 130.13 50.2749 128.188L130.737 197.456L104.166 232.518L104.166 232.517Z" fill="white"/>
<path d="M29.3341 139.191L102.85 222.17L104.171 232.523L26.9077 141.266C26.9077 141.266 27.887 140.298 28.0296 140.181C28.2262 140.018 29.3341 139.191 29.3341 139.191Z" fill="url(#paint0_linear_258_126)"/>
<path opacity="0.3" d="M95.3106 167.399C95.3106 167.399 89.2843 171.055 80.6812 173.161C72.0781 175.267 67.275 182.102 67.275 182.102L57.8253 171.211L85.5938 158.076L95.3106 167.399Z" fill="#07001E"/>
<path d="M49.8017 128.964L128.914 198.031L129.931 196.761L50.2734 128.188L49.8017 128.964Z" fill="#D8D8D8"/>
<path d="M158.624 186.838L157.451 168.749C157.415 168.194 156.766 167.911 156.334 168.262L146.155 176.521L127.311 200.032C127.311 200.032 124.756 204.743 119.438 206.515C114.534 208.149 106.922 209.334 103.123 217.873C102.522 219.226 102.334 220.726 102.573 222.186L104.387 233.289C104.548 234.281 105.74 234.704 106.493 234.041L157.807 188.821C158.372 188.322 158.675 187.589 158.627 186.837L158.624 186.838Z" fill="url(#paint1_linear_258_126)"/>
<path d="M158.693 187.515L157.52 169.426C157.483 168.872 156.835 168.589 156.403 168.94L146.224 177.198L127.38 200.709C127.38 200.709 124.825 205.42 119.507 207.192C114.603 208.826 106.991 210.011 103.192 218.55C102.591 219.903 102.403 221.403 102.642 222.863L104.456 233.966C104.617 234.958 105.809 235.382 106.562 234.718L157.876 189.498C158.441 189 158.744 188.266 158.696 187.515L158.693 187.515Z" fill="#07001E"/>
<path d="M68.1674 122.072L65.1608 109.38C65.0142 108.764 64.3458 108.431 63.7655 108.685L57.0905 111.608C56.2789 111.964 55.5348 112.455 54.8881 113.063L43.2317 124.038C43.2317 124.038 39.3655 128.282 32.0261 127.578C28.6624 127.254 26.7875 128.397 25.7446 129.731C24.681 131.092 24.3693 132.897 24.8289 134.561L26.7266 141.451C26.8938 142.054 27.5649 142.363 28.132 142.096L67.4442 123.578C68.0113 123.311 68.3136 122.685 68.1694 122.076L68.1674 122.072Z" fill="url(#paint2_linear_258_126)"/>
<path d="M68.2012 122.405L65.1946 109.712C65.048 109.096 64.3796 108.764 63.7993 109.017L57.1243 111.94C56.3127 112.296 55.5686 112.788 54.9219 113.395L43.2655 124.37C43.2655 124.37 39.3993 128.615 32.0599 127.91C28.6962 127.586 26.8214 128.73 25.7784 130.063C24.7148 131.425 24.4031 133.229 24.8627 134.893L26.7605 141.783C26.9276 142.386 27.5987 142.696 28.1658 142.428L67.478 123.911C68.0451 123.643 68.3474 123.017 68.2032 122.408L68.2012 122.405Z" fill="#07001E"/>
<path d="M91.5572 109.726C85.3299 104.967 85.5061 94.2858 91.9512 85.8666C98.3962 77.4474 108.447 74.228 115.051 79.0392C115.051 79.0392 112.476 77.4779 111.558 76.8702C110.44 76.1285 108.81 75.2327 108.81 75.2327C100.482 70.4912 89.6949 72.6617 82.8222 81.8774C75.9478 91.0934 76.6514 103.873 83.7479 109.155L86.4845 110.89L91.5589 109.726L91.5572 109.726Z" fill="#07001E"/>
<path d="M114.582 103.007C121.071 94.5333 121.282 83.8059 115.054 79.0469C108.826 74.2879 98.5173 77.2993 92.029 85.7732C85.5406 94.247 85.3295 104.974 91.5574 109.733C97.7853 114.492 108.094 111.481 114.582 103.007Z" fill="url(#paint3_linear_258_126)"/>
<path d="M113.932 102.668C120.038 94.6937 120.372 84.7029 114.679 80.3526C108.986 76.0022 99.4211 78.9397 93.3155 86.9136C87.21 94.8874 86.8757 104.878 92.5688 109.229C98.2619 113.579 107.827 110.641 113.932 102.668Z" fill="#14111E"/>
<path d="M111.153 100.925C115.441 95.3255 115.676 88.3094 111.678 85.2544C107.681 82.1995 100.964 84.2626 96.6758 89.8626C92.388 95.4625 92.1529 102.479 96.1508 105.534C100.149 108.589 106.865 106.525 111.153 100.925Z" fill="#07001E"/>
<path d="M280.74 66.1535L299.044 68.0808L295.094 80.5114L258.109 111.172C258.109 111.172 233.932 109.652 226.711 107.451C219.49 105.249 194.934 108.031 194.934 108.031L179.552 112.702L201.056 98.3118L247.754 95.3337L273.75 84.1161L277.989 70.794L280.74 66.1568L280.74 66.1535Z" fill="#07001E"/>
<path d="M280.74 66.1535L299.044 68.0808L295.094 80.5114L258.109 111.172C258.109 111.172 233.932 109.652 226.711 107.451C219.49 105.249 194.934 108.031 194.934 108.031L179.552 112.702L201.056 98.3118L247.754 95.3337L273.75 84.1161L277.989 70.794L280.74 66.1568L280.74 66.1535Z" stroke="url(#paint4_linear_258_126)" stroke-width="0.991519" stroke-miterlimit="10"/>
<path d="M59.5928 136.114C59.5928 136.114 77.8939 115.859 88.6442 106.44C101.607 95.0837 112.562 87.5995 120.29 83.4105C128.017 79.2217 147.82 67.9261 161.533 62.9321C175.247 57.9382 184.549 51.5312 184.549 51.5312L186.743 48.3243C187.266 47.5583 187.952 46.9184 188.751 46.4462C190.476 45.4272 193.549 43.6958 194.854 43.4742C194.854 43.4742 194.026 45.8947 193.239 46.8586C192.452 47.8225 190.506 51.0512 187.96 52.132C185.415 53.2109 177.021 58.9267 177.021 58.9267C177.021 58.9267 190.482 60.0652 198.026 62.3942C202.773 63.8602 206.044 62.0046 206.044 62.0046L224.396 56.019C229.232 55.1012 230.355 52.1458 230.355 52.1458C232.382 45.9723 235.02 43.0054 235.657 42.751C236.294 42.4967 239.933 40.0436 239.933 40.0436C238.107 39.8032 233.033 32.3157 233.033 32.3157L239.2 30.0314C239.685 31.0706 241.373 33.2202 242.623 34.3241C243.874 35.428 244.435 35.3708 250.706 35.9642C256.976 36.5576 257.984 39.4858 258.413 40.4367C258.842 41.3877 258.563 48.4251 258.563 48.4251C250.121 51.8095 242.81 57.6048 238.164 59.7812C233.519 61.9577 213.564 70.0251 213.564 70.0251L213.034 89.2359C207.785 89.8168 204.868 99.6634 204.868 99.6634C204.868 99.6634 197.862 100.376 194.182 103.34C190.501 106.304 184.626 110.058 182.644 111.079C180.663 112.101 142.105 133.197 134.027 137.049C125.949 140.901 114.724 144.253 114.724 144.253C114.724 144.253 104.551 148.004 89.9293 156.5C75.3077 164.996 44.5179 181.043 44.5179 181.043C39.0444 183.151 35.8648 183.119 33.9411 182.842C32.0175 182.564 29.6646 181.334 28.9609 179.086C28.2586 176.836 28.1551 174.432 30.7627 169.764C33.3686 165.095 40.4149 157.091 40.4149 157.091" fill="#2A0867"/>
<path d="M219.904 60.3587C219.904 60.3587 159.955 80.6563 121.523 106.875C121.523 106.875 149.121 87.3047 173.557 77.2889C197.993 67.2748 218.212 60.5291 218.212 60.5291L219.902 60.3572L219.904 60.3587Z" fill="white"/>
<path d="M173.059 60.7201C173.059 60.7201 131.97 76.9513 114.004 87.7582C113.88 87.8328 113.76 87.9054 113.638 87.9781C95.8704 98.7833 138.438 73.6166 156.143 66.8432L174.174 59.8L173.059 60.7185L173.059 60.7201Z" fill="white"/>
<path d="M52.7024 171.732C52.7024 171.732 70.82 155.253 85.8255 142.013C95.4558 133.517 103.252 126.694 107.837 123.231C113.781 118.744 133.626 105.305 145.606 98.6478C149.41 96.5334 153.984 93.8056 157.997 91.6097C164.256 88.1855 169.675 85.4893 172.708 84.0756C179.986 80.6821 195.593 73.4846 211.969 67.2538L212.17 66.3529C212.17 66.3529 188.546 74.4227 172.743 82.4704C156.939 90.518 141.131 99.6362 129.547 106.438C117.963 113.24 102.486 125.606 91.6147 134.92L80.7428 144.234L51.5338 170.394L52.7039 171.731L52.7024 171.732Z" fill="url(#paint5_linear_258_126)"/>
<path d="M50.8193 169.509C50.8193 169.509 85.731 138.36 89.7718 134.826C97.491 128.073 108.958 119.264 126.167 107.696C142.209 96.9116 169.727 82.0372 199.51 70.0587L212.378 65.1508L212.136 66.5021C212.136 66.5021 183.354 76.7854 156.383 91.5875C146.712 96.8948 139.475 101.28 133.566 104.942C124.668 110.456 117.822 114.919 109.327 121.028C101.855 126.4 90.1418 136.747 84.4669 141.712C76.2792 148.876 51.9254 171.008 51.9254 171.008L50.8193 169.509Z" fill="white"/>
<path d="M121.525 106.876C121.525 106.876 103.328 118.956 90.6022 130.859C77.8766 142.761 76.0804 143.274 73.612 143.715C71.1435 144.155 65.7046 143.335 62.2284 137.58C62.2284 137.58 61.2669 134.647 62.9571 132.629C64.6472 130.61 80.6089 113.236 88.5464 106.452C88.5464 106.452 79.092 116.497 78.6323 117.11C78.1726 117.724 79.6181 119.804 79.6181 119.804C79.6181 119.804 83.1391 124.134 90.7758 125.583C90.7758 125.583 92.3324 125.916 93.7212 124.715C95.0391 123.576 115.963 108.673 121.525 106.875L121.525 106.876Z" fill="url(#paint6_linear_258_126)"/>
<path d="M52.7023 171.732C52.7023 171.732 44.3471 181.443 37.3371 181.83C30.5341 182.207 28.5609 178.537 28.3741 176.023C28.2985 174.999 29.1374 172.997 29.1374 172.997C29.1374 172.997 30.227 178.577 32.0766 179.051C33.9263 179.525 39.5667 179.52 40.4192 179.055C41.2717 178.589 51.5322 170.396 51.5322 170.396L52.7023 171.732Z" fill="url(#paint7_linear_258_126)"/>
<path d="M30.5208 170.025C30.5208 170.025 30.0387 174.381 33.0311 176.302C36.0234 178.224 38.7006 177.987 43.4744 175.519C48.2482 173.051 50.8192 169.509 50.8192 169.509L52.0193 170.926C52.0193 170.926 44.6477 178.026 40.9081 179.652C36.7875 181.445 33.1265 180.509 30.9888 179.068C26.6199 176.124 30.5208 170.025 30.5208 170.025Z" fill="white"/>
<path d="M211.544 68.124L211.068 69.9049C211.02 70.086 210.917 70.2457 210.771 70.3612C209.62 71.2799 204.386 75.497 203.416 76.9995C202.324 78.6889 202.723 80.2198 202.723 80.2198L204.32 79.7655C205.65 79.3871 207.063 78.9667 207.758 78.901C207.945 78.8819 208.088 79.062 208.034 79.2419L206.162 85.331C206.036 85.7397 205.741 86.0733 205.348 86.2456C201.648 87.8732 182.272 96.4552 175.165 100.925C175.047 100.999 174.901 100.888 174.939 100.755L180.615 80.9771C180.615 80.9771 195.425 74.327 211.542 68.1242L211.544 68.124Z" fill="url(#paint8_linear_258_126)"/>
<path d="M166.683 104.935L172.777 84.679L179.305 81.7426L173.611 101.579L166.683 104.935Z" fill="url(#paint9_linear_258_126)"/>
<path d="M159.713 108.486L165.782 88.0825L170.429 85.7667L164.451 105.983L159.713 108.486Z" fill="url(#paint10_linear_258_126)"/>
<path d="M153.23 111.86L154.563 111.282L160.633 90.8064L158.808 91.8138L152.981 111.885" fill="url(#paint11_linear_258_126)"/>
<path d="M240.799 45.3527L240.179 47.6414C240.179 47.6414 254.996 41.118 257.654 39.1889C257.654 39.1889 256.944 38.2514 256.404 37.8787C256.404 37.8787 250.182 41.6243 240.799 45.3543L240.799 45.3527Z" fill="url(#paint12_linear_258_126)"/>
<path d="M239.532 49.2905L238.118 55.4236C238.093 55.5301 238.203 55.6162 238.3 55.5677L246.088 51.7149C246.244 51.6369 246.363 51.5024 246.422 51.3387L248.315 45.9519C248.379 45.7693 248.511 45.62 248.684 45.5336C249.871 44.94 254.749 42.4932 258.359 40.5831L258.08 40.0111L239.835 48.9074C239.682 48.9817 239.572 49.1221 239.533 49.287L239.532 49.2905Z" fill="url(#paint13_linear_258_126)"/>
<path d="M248.763 46.7699L248.107 48.9431C248.107 48.9431 258.271 44.0033 258.476 43.6973C258.682 43.3913 258.474 41.7252 258.474 41.7252L248.765 46.7698L248.763 46.7699Z" fill="url(#paint14_linear_258_126)"/>
<path d="M229.173 148.112C233.834 130.357 231.203 114.284 223.295 112.213C215.387 110.142 205.197 122.857 200.535 140.613C195.873 158.369 198.505 174.441 206.413 176.512C214.321 178.583 224.511 165.868 229.173 148.112Z" fill="url(#paint15_linear_258_126)"/>
<path d="M229.157 148.179C233.555 131.427 231.192 116.295 223.878 114.379C216.564 112.464 207.07 124.492 202.672 141.244C198.273 157.995 200.637 173.128 207.95 175.043C215.264 176.959 224.759 164.931 229.157 148.179Z" fill="#181328"/>
<path d="M226.33 147.558C229.264 136.381 227.341 126.192 222.033 124.802C216.725 123.412 210.043 131.347 207.108 142.525C204.173 153.702 206.097 163.89 211.405 165.28C216.713 166.67 223.395 158.736 226.33 147.558Z" fill="#07001E"/>
<path d="M225.266 113.085C219.825 109.259 205.747 106.523 203.232 106.222C191.19 103.832 180.695 115.565 176.074 133.16C173.066 144.616 173.996 155.593 177.874 162.609C177.874 162.609 182.756 170.88 207.133 176.663L206.413 176.517C198.505 174.446 195.873 158.373 200.536 140.617C205.175 122.95 215.286 110.274 223.178 112.187C223.218 112.196 223.937 112.447 223.977 112.458L225.266 113.083L225.266 113.085Z" fill="#07001E"/>
<path d="M226.33 147.558C229.264 136.381 227.341 126.192 222.033 124.802C216.725 123.412 210.043 131.347 207.108 142.525C204.173 153.702 206.097 163.89 211.405 165.28C216.713 166.67 223.395 158.736 226.33 147.558Z" stroke="url(#paint16_linear_258_126)" stroke-width="0.661012" stroke-miterlimit="10"/>
<path d="M204.767 99.6737C204.767 99.6737 221.83 96.5496 241.902 96.9067C261.973 97.2655 271.909 89.3081 271.909 89.3081C271.909 89.3081 277.606 84.435 279.872 71.8923C279.872 71.8923 278.986 69.3928 279.516 68.393C280.045 67.3915 283.803 62.0851 283.491 58.3917C283.491 58.3917 285.466 56.6747 285.953 55.8688C286.44 55.0628 287.546 51.034 284.203 48.5966C284.203 48.5966 281.465 47.171 274.769 45.9567C268.073 44.7442 265.491 45.4479 258.461 48.4354C251.434 51.4227 246.164 55.1521 242.5 57.2807C238.837 59.4093 237.2 60.3489 228.246 63.8257C219.292 67.3024 219.93 66.6874 210.596 71.2359C201.263 75.7844 202.803 80.3625 202.803 80.3625C202.803 80.3625 206.786 78.505 215.481 77.6207C224.177 76.7363 232.954 76.0332 240.275 77.1822C247.598 78.3311 246.42 84.0711 246.42 84.0711C246.42 84.0711 245.422 87.3929 231.864 88.3289C218.307 89.2649 212.933 89.2445 212.933 89.2445C212.933 89.2445 209.146 89.727 206.757 94.9093C204.366 100.092 204.767 99.672 204.767 99.672L204.767 99.6737Z" fill="#2A0867"/>
<path d="M216.924 71.0585C216.762 71.1488 216.812 71.3936 216.997 71.415C219.436 71.6903 230.748 72.8477 240.648 71.8408C251.815 70.7052 236.171 71.6253 236.171 71.6253C236.171 71.6253 221.691 71.8736 218.771 71.129C218.771 71.129 216.484 71.006 220.819 69.594C224.694 68.3329 218.642 70.1023 216.926 71.0567L216.924 71.0585Z" fill="white"/>
<path d="M274.779 70.9277C274.779 70.9277 264.185 77.6875 261.447 79.6717C258.709 81.6541 264.773 78.8168 264.773 78.8168C264.773 78.8168 274.162 72.3271 278.286 69.0616L274.779 70.9277Z" fill="white"/>
<path d="M215.174 98.2261C215.174 98.2261 240.229 91.9631 249.07 91.2535C257.909 90.5441 269.772 90.6643 269.772 90.6643C269.772 90.6643 264.55 94.3217 254.848 95.8752C245.146 97.4305 236.464 96.8929 236.464 96.8929L223.675 97.4421L215.173 98.2263L215.174 98.2261Z" fill="#D8D8D8"/>
<path d="M212.895 88.8711C212.895 88.8711 209.557 90.5372 208.469 91.9728C207.383 93.4099 236.677 89.6727 241.338 87.02L212.895 88.8711Z" fill="#D8D8D8"/>
<path d="M215.48 77.6208C224.175 76.7365 232.953 76.0333 240.273 77.1824C247.596 78.3313 246.419 84.0713 246.419 84.0713C246.419 84.0713 245.42 87.3931 231.863 88.3291C218.306 89.265 212.931 89.2447 212.931 89.2447L213.119 77.8978L215.478 77.621L215.48 77.6208Z" fill="#07001E"/>
<path d="M209.702 93.6773C209.702 93.6773 232.531 91.7832 241.129 89.3055C241.129 89.3055 244.772 88.5508 246.254 86.9075C246.254 86.9075 242.304 88.4345 239.283 89.1678C236.26 89.9012 212.84 93.6097 209.704 93.6754L209.702 93.6773Z" fill="white"/>
<path d="M159.399 63.7128C159.399 63.7128 158.792 60.2758 161.317 57.6038C163.843 54.9319 173.909 49.5038 179.94 47.7533C185.972 46.0027 195.162 42.2269 195.162 42.2269L193.667 46.0352C193.667 46.0352 191.772 48.6431 190.576 50.1098C189.381 51.5765 182.857 55.0325 182.857 55.0325L176.954 55.9834C176.954 55.9834 167.039 61.3206 159.395 63.7131L159.399 63.7128Z" fill="#2A0867"/>
<path d="M162.809 62.1716C162.809 62.1716 161.497 61.074 160.906 61.7966C160.315 62.5192 160.737 63.2344 160.737 63.2344L163.103 62.405L162.809 62.1716Z" fill="#07001E"/>
<path d="M166.222 60.6105C166.222 60.6105 164.005 59.7944 162.386 59.7226C160.767 59.6508 164.343 60.5651 164.343 60.5651L166.038 61.1508L166.633 60.9075L166.22 60.6124L166.222 60.6105Z" fill="white"/>
<path d="M171.983 51.5461C171.983 51.5461 165.514 54.7131 162.573 57.1909C159.632 59.6687 171.983 51.5461 171.983 51.5461Z" fill="white"/>
<path opacity="0.3" d="M194.705 43.3969L193.669 46.0365L190.974 49.6163C190.974 49.6163 189.135 51.9804 185.566 53.3698C181.997 54.7592 175.46 54.4966 175.46 54.4966C175.46 54.4966 165.287 54.9341 180.212 47.6751" fill="#07001E"/>
<path d="M180.212 47.6752C180.212 47.6752 184.957 46.126 194.705 43.397Z" fill="#F4F4F4"/>
<path opacity="0.3" d="M214.585 33.5445C214.585 33.5445 201.996 35.6315 197.907 36.3542L212.063 37.2241C212.063 37.2241 214.258 36.3887 214.585 33.5445Z" fill="#07001E"/>
<path d="M221.252 28.0998C221.252 28.0998 219.246 27.4986 215.334 31.9352L216.025 32.0092C216.025 32.0092 228.595 32.247 230.112 32.0927C231.629 31.9384 233.097 29.5165 233.097 29.5165C233.097 29.5165 231.87 26.5469 221.253 28.1013L221.252 28.0998Z" fill="#14111E"/>
<path d="M202.482 41.4842C202.482 41.4842 198.178 49.4994 196.467 50.383C194.755 51.2681 180.522 57.2139 180.522 57.2139C180.522 57.2139 182.783 59.5166 184.324 59.6953C185.865 59.874 187.708 60.0555 192.97 61.1053C195.085 61.5276 196.968 62.0992 198.133 62.4755C199.247 62.8352 201.632 63.0371 202.793 62.9022C204.671 62.6827 206.4 62.1027 208.958 61.0342C213.108 59.3005 224.832 52.4594 223.68 49.9786C222.528 47.4977 211.379 36.2237 202.48 41.486" fill="#14111E"/>
<path d="M202.482 41.4842C202.482 41.4842 199.767 48.8112 196.999 50.9661C194.232 53.121 181.415 57.1231 181.415 57.1231L182.624 55.593C183.012 55.1023 183.489 54.6899 184.033 54.3796C185.615 53.4741 189.066 51.4509 190.429 50.2775C192.222 48.7315 194.216 45.3857 194.848 43.0337C195.48 40.6817 202.483 41.484 202.483 41.484L202.482 41.4842Z" fill="#706F6F"/>
<path d="M211.615 37.2092C211.615 37.2092 213.646 37.058 214.333 34.489C215.02 31.9201 214.963 31.3574 218.567 31.3699C222.171 31.3824 230.112 32.0894 230.112 32.0894C230.112 32.0894 232.974 34.0708 232.322 37.7129C231.67 41.355 223.683 49.9748 223.683 49.9748L210.282 49.0348C209.809 49.0008 209.471 48.5639 209.559 48.097L211.615 37.2075L211.615 37.2092Z" fill="#181328"/>
<path d="M237.187 41.6513L228.882 41.4577C228.882 41.4577 226.977 41.3613 225.156 46.2813C223.333 51.2031 220.895 54.2536 217.672 55.6665C214.45 57.0794 212.625 57.3119 211.957 59.1308C211.957 59.1308 209.808 59.4433 209.275 60.4921L208.961 61.0306L225.371 55.7758C225.371 55.7758 229.308 54.7246 230.256 52.1544C231.203 49.5825 233.2 44.8895 234.852 43.3513L237.187 41.6513Z" fill="#706F6F"/>
<path d="M239.099 30.0415C239.099 30.0415 234.669 21.4469 233.545 19.2417C232.421 17.0348 229.335 16.5435 226.156 17.4354C226.156 17.4354 229.641 17.2235 230.453 20.076C231.266 22.9302 233.095 29.5149 233.095 29.5149L230.111 32.0911C230.111 32.0911 233.014 34.1624 232.321 37.7147L237.119 37.8154C237.119 37.8154 234.356 34.5324 232.931 32.3258L239.099 30.0415Z" fill="#14111E"/>
<path d="M211.209 34.1059C211.209 34.1059 214.985 29.5574 219.185 28.5936C219.185 28.5936 215.579 30.5268 214.439 33.5694" fill="#14111E"/>
<path d="M226.013 18.3643C226.013 18.3643 223.782 17.865 220.07 28.5975C220.07 28.5975 230.112 26.3452 233.097 29.5134C233.097 29.5134 231.326 17.3493 226.013 18.3626L226.013 18.3643Z" fill="#07001E"/>
<path d="M219.82 28.5456L223.764 19.8087C225.056 17.1062 229.005 17.4241 229.845 20.299L232.43 29.1433" stroke="url(#paint17_linear_258_126)" stroke-width="2.64405" stroke-miterlimit="10" stroke-linecap="round"/>
<path d="M204.621 62.5216C204.621 62.5216 203.282 59.2363 201.313 57.1271C201.183 56.9877 200.995 56.9229 200.806 56.9438C200.465 56.9818 199.836 57.081 198.879 57.3359C197.832 57.6152 194.433 56.5202 192.372 55.794C191.167 55.3697 190.042 54.7478 189.052 53.9411C188.955 53.8621 188.869 53.7887 188.797 53.7256C188.255 53.2389 184.888 55.5001 183.636 58.5977L183.264 59.776L184.063 59.6612C184.063 59.6612 184.332 58.6074 185.269 57.6198C185.465 57.4138 185.789 57.4144 185.997 57.6079C186.418 58.0045 187.348 58.5489 189.211 58.4098C189.423 58.3933 189.63 58.4813 189.767 58.6434L191.608 60.8294L194.25 61.3876L193.035 59.8289C192.974 59.7496 193.064 59.6432 193.152 59.6912C193.835 60.0596 195.264 60.6941 196.771 60.5191L196.943 62.0966C196.943 62.0966 198.765 62.7482 199.32 62.7538C199.874 62.7595 202.135 63.2122 204.621 62.5232L204.621 62.5216Z" fill="#07001E"/>
<path d="M198.467 57.472C198.467 57.472 198.385 58.0723 195.886 57.7344C193.387 57.3965 188.588 55.8803 187.35 54.1747C187.35 54.1747 188.411 53.3624 188.931 53.8428C190.257 55.0631 193.641 56.6378 198.465 57.4721L198.467 57.472Z" fill="url(#paint18_linear_258_126)"/>
<path d="M187.484 57.685C187.189 58.8823 188.883 60.3487 188.883 60.3487L184.065 59.6629C183.5 59.2038 185.437 57.2206 185.437 57.2206L187.486 57.6865L187.484 57.685Z" fill="#07001E"/>
<path d="M174.48 66.3048L186.137 61.6155C186.137 61.6155 189.157 60.0773 182.254 59.7848C182.254 59.7848 171.363 63.3546 168.301 64.8501C165.24 66.3455 168.588 67.5682 174.48 66.3048Z" fill="#181328"/>
<path d="M169.64 64.855C169.64 64.855 173.281 61.5009 178.303 54.0298C183.327 46.5569 183.64 45.9094 183.64 45.9094C183.64 45.9094 184.901 41.9925 184.907 40.1921L184.911 38.8768C184.911 38.5497 184.748 38.2444 184.471 38.0695C184.134 37.8556 183.641 37.6089 183.133 37.5868C182.575 37.563 182.132 37.0831 182.147 36.5264C182.162 36.0133 182.438 35.4218 183.377 34.9489C183.377 34.9489 195.117 34.3235 205.014 34.6906C205.014 34.6906 206.264 35.3216 205.727 36.5603L190.605 35.636C190.605 35.636 201.639 36.929 212.907 37.2507C224.174 37.5723 246.663 38.009 246.663 38.009C246.663 38.009 248.559 38.4786 246.77 40.4603C246.77 40.4603 241.753 42.6359 240.754 43.5275C240.754 43.5275 238.316 43.7905 237.188 43.8901C236.06 43.9898 236.939 43.9155 236.939 43.9155C236.939 43.9155 238.137 42.9734 238.563 42.5025C238.988 42.0315 238.37 41.5275 236.441 41.6768C234.512 41.826 212.17 40.7354 206.943 41.0774C201.716 41.4194 195.403 42.7173 192.028 44.5868C188.65 46.4566 187.857 45.9066 183.482 53.218C183.482 53.218 182.521 56.3464 184.159 59.8731L184.22 60.9319C184.22 60.9319 176.419 64.875 174.37 65.4624C172.322 66.0498 168.184 66.8497 169.64 64.855Z" fill="#07001E"/>
<path d="M246.821 38.8534C246.821 38.8534 213.571 37.7048 209.835 37.7996C206.35 37.889 198.731 37.4161 188.421 43.1457C186.996 43.938 185.772 45.0503 184.857 46.3996L171.893 66.0129C171.893 66.0129 173.992 65.7055 177.277 64.2829C180.563 62.8603 184.221 60.9335 184.221 60.9335L184.161 59.8746C184.161 59.8746 182.065 56.039 183.958 52.435C184.933 50.5782 187.097 47.2636 188.831 46.3225C189.733 45.8332 194.428 42.5834 201.517 41.7232C208.607 40.863 209.329 40.8617 221.034 41.2445C232.739 41.6273 237.744 41.499 238.39 41.8593C239.036 42.2196 238.566 42.5039 238.566 42.5039L236.942 43.9169L240.756 43.529C240.756 43.529 244.612 41.1326 246.771 40.4618C246.771 40.4618 248.118 38.7785 246.821 38.855L246.821 38.8534Z" fill="#07001E"/>
<path d="M186.956 42.1624C186.956 42.1624 184.992 44.4452 183.298 47.0494C181.603 49.652 172.297 63.6572 170.809 65.6367C170.308 66.3032 171.891 66.013 171.891 66.013C171.891 66.013 175.519 60.599 179.344 54.4724C182.507 49.4042 185.85 43.6049 186.956 42.1624Z" fill="#858585"/>
<path d="M195.543 36.6482C195.543 36.6482 191.965 37.8171 190.855 39.0185C190.855 39.0185 192.337 37.5311 193.808 36.8246C195.279 36.1165 195.545 36.648 195.545 36.648L195.543 36.6482Z" fill="#858585"/>
<path d="M220.988 60.4077C223.087 60.5884 228.851 61.0102 233.971 60.6858C234.508 60.6513 234.964 60.2829 235.111 59.7664C235.325 59.0184 235.591 57.7134 235.737 56.9723C235.795 56.6745 235.582 56.3942 235.281 56.3695C232.878 56.1645 223.49 55.3749 221.312 55.3046C220.997 55.2947 220.701 55.4405 220.514 55.6927C220.042 56.3311 219.303 57.6859 219.813 59.4454C219.968 59.9781 220.433 60.3618 220.987 60.4095L220.988 60.4077Z" fill="url(#paint19_linear_258_126)"/>
<path d="M164.549 46.0279L169.408 47.8348C169.586 47.9006 169.71 48.0624 169.728 48.2518C169.773 48.7638 169.828 49.9809 169.861 50.7574C169.879 51.1565 169.591 51.501 169.196 51.5564C168.61 51.6394 167.658 51.6541 167.003 51.6519C166.532 51.6494 166.073 51.5116 165.68 51.2531C164.82 50.6882 163.318 49.6584 163.072 49.2021C162.722 48.5567 162.877 45.6528 164.55 46.0261L164.549 46.0279Z" fill="url(#paint20_linear_258_126)"/>
<path d="M215.482 66.1403C215.578 65.5023 215.299 64.9319 214.859 64.8663C214.419 64.8007 213.985 65.2647 213.89 65.9027C213.794 66.5407 214.073 67.1111 214.513 67.1767C214.953 67.2423 215.387 66.7783 215.482 66.1403Z" fill="#07001E"/>
<path d="M223.888 60.8541L223.937 62.7427L218.546 66.6051C218.546 66.6051 217.46 67.1181 216.039 66.6471C214.616 66.1762 214.375 66.1303 214.375 66.1303" stroke="#1D1D1B" stroke-width="0.991519" stroke-miterlimit="10" stroke-linecap="round"/>
<path d="M166.988 51.8411L167.198 53.9045L171.668 58.4697" stroke="#1D1D1B" stroke-width="0.991519" stroke-miterlimit="10" stroke-linecap="round"/>
<path d="M274.768 45.9553L278.601 42.3134C278.601 42.3134 280.111 40.392 276.657 38.1235C273.203 35.855 265.349 31.805 265.349 31.805C265.349 31.805 262.103 31.1724 257.624 32.0354C253.146 32.8984 248.297 33.9836 245.131 35.3941L247.326 35.6673C247.326 35.6673 252.779 35.8289 255.327 37.143C257.873 38.4556 258.415 40.8626 258.415 40.8626C258.415 40.8626 258.633 47.3296 258.461 48.4355C258.461 48.4355 264.564 45.6009 267.501 45.5069C270.438 45.4128 270.215 45.3131 274.768 45.9553Z" fill="#2A0867"/>
<path d="M257.159 38.5666L257.955 39.7285C257.955 39.7285 262.562 37.5206 264.034 36.7554C265.385 36.0545 269.245 33.8657 269.245 33.8657L267.999 33.1991C267.999 33.1991 264.319 35.0358 263.053 35.6242C261.559 36.3179 256.905 38.3174 256.905 38.3174L257.157 38.5668L257.159 38.5666Z" fill="url(#paint21_linear_258_126)"/>
<path d="M258.373 40.7126L270.176 34.3666L270.514 34.5519L258.471 41.355L258.373 40.7126Z" fill="url(#paint22_linear_258_126)"/>
<path d="M227.454 17.1275C227.454 17.1275 230.872 15.7719 233.394 15.4197C235.917 15.0676 238.46 16.2782 238.46 16.2782C238.46 16.2782 247.883 20.3397 257.025 25.1879C257.025 25.1879 261.964 27.8589 265.096 31.6126C265.096 31.6126 257.079 30.8178 245.229 35.3857C245.229 35.3857 243.012 35.4536 241.104 32.7427C239.197 30.0318 238.936 29.4797 233.869 19.6768C233.869 19.6768 232.805 16.1254 227.456 17.129L227.454 17.1275Z" fill="#2A0867"/>
<path d="M234.056 20.2364C234.056 20.2364 239.614 18.4199 241.76 17.7974C241.76 17.7974 255.087 24.0364 257.135 25.3124C257.135 25.3124 248.244 30.0608 240.739 32.3704C240.739 32.3704 239.629 30.521 239.136 29.8768C238.642 29.2327 234.056 20.2364 234.056 20.2364Z" fill="url(#paint23_linear_258_126)"/>
<path d="M239.325 30.297C239.325 30.297 245.231 27.89 247.162 27.0664C249.093 26.2427 254.399 23.8648 254.399 23.8648L254.819 24.0938C254.819 24.0938 249.215 26.621 247.357 27.4323C245.41 28.281 239.594 30.7359 239.594 30.7359L239.323 30.2972L239.325 30.297Z" fill="white"/>
<path d="M240.318 31.7591C240.318 31.7591 247.419 28.937 249.738 27.9163C251.395 27.1876 256.279 24.8526 256.279 24.8526L257.135 25.3107C257.135 25.3107 251.639 28.1155 249.748 28.9568C246.505 30.4003 240.792 32.4455 240.792 32.4455L240.318 31.7575L240.318 31.7591Z" fill="white"/>
<path d="M254.154 10.2777C254.154 10.2777 250.74 11.1935 249.01 11.8894C247.279 12.5854 246.239 15.6983 245.303 19.1681L253.953 22.1207L256.457 10.2381L254.154 10.2761L254.154 10.2777Z" fill="url(#paint24_linear_258_126)"/>
<path opacity="0.3" d="M248.455 16.2444L254.403 19.9835L255.263 15.9009L248.455 16.2444Z" fill="#14111E"/>
<path d="M254.154 10.2778L312.148 9.31588L305.117 16.0419C305.117 16.0419 259.211 16.469 248.457 16.2427C248.457 16.2427 247.544 15.4232 249.459 14.4468C251.375 13.4704 252.723 12.7815 254.154 10.2762L254.154 10.2778Z" fill="#2A0867"/>
<path d="M248.529 15.1031L305.821 14.9203L305.118 16.0434C305.118 16.0434 283.825 16.2264 276.748 16.2518C269.661 16.2765 248.457 16.2442 248.457 16.2442C248.457 16.2442 247.887 15.7772 248.529 15.1031Z" fill="url(#paint25_linear_258_126)"/>
<path d="M301.768 26.4943L266.288 25.3394L264.694 28.6211L300.783 29.8634L301.768 26.4943Z" fill="#2A0867"/>
<path opacity="0.3" d="M266.288 25.3394L301.769 26.4943L301.309 28.1478L266.125 26.862L266.288 25.3394Z" fill="#07001E"/>
<path d="M298.198 47.6749L295.886 47.9099C295.886 47.9099 302.658 21.2716 306.505 12.4826C306.505 12.4826 312.349 9.04713 312.912 8.98984C313.475 8.93255 313.787 11.9953 311.917 17.2355C310.048 22.4773 301.778 46.8059 301.778 46.8059L298.196 47.6734L298.198 47.6749Z" fill="#2A0867"/>
<path d="M306.505 12.4827L300.89 29.4114L309.629 23.8231L311.917 17.2372C311.917 17.2372 313.779 12.1136 313.29 9.70612C313.29 9.70612 313.621 8.53201 312.146 9.31765C310.671 10.1033 306.505 12.4843 306.505 12.4843" fill="url(#paint26_linear_258_126)"/>
<path d="M300.54 30.7115L309.127 25.2864L308.901 25.9433L300.338 31.4248L300.54 30.7115Z" fill="url(#paint27_linear_258_126)"/>
<path d="M328.469 55.3773C330.503 45.065 329.823 36.2472 326.95 35.6822C324.078 35.1172 320.1 43.019 318.066 53.3313C316.032 63.6436 316.712 72.4614 319.584 73.0264C322.457 73.5914 326.434 65.6897 328.469 55.3773Z" fill="url(#paint28_linear_258_126)"/>
<path d="M328.466 55.3857C330.465 45.2516 329.972 36.6204 327.364 36.1076C324.757 35.5948 321.023 43.3944 319.024 53.5286C317.025 63.6628 317.518 72.2939 320.125 72.8068C322.733 73.3196 326.467 65.5199 328.466 55.3857Z" fill="#181328"/>
<path d="M327.303 56.0279C328.521 49.8549 328.078 44.5697 326.316 44.2229C324.553 43.8762 322.136 48.5992 320.919 54.7721C319.701 60.9451 320.143 66.2303 321.906 66.5771C323.669 66.9238 326.085 62.2008 327.303 56.0279Z" fill="#07001E"/>
<path d="M326.975 35.6914C317.807 34.7587 307.077 34.9023 307.077 34.9023C302.934 35.2449 299.174 42.6447 296.786 52.8819C294.572 62.3753 296.195 68.6558 297.539 71.2898C297.713 71.631 298.056 71.8528 298.438 71.8743L319.603 73.0359C316.731 72.471 316.052 63.6526 318.087 53.3404C320.123 43.0283 324.1 35.1267 326.973 35.6916" fill="#07001E"/>
<path d="M265.349 31.805C265.246 31.7869 266.341 26.1744 266.288 25.3378C266.235 24.5013 243.917 18.811 243.917 18.811C243.917 18.811 257.474 24.9612 261.424 28.214C265.375 31.4669 265.35 31.8032 265.35 31.8032L265.349 31.805Z" fill="url(#paint29_linear_258_126)"/>
<path d="M255.26 24.403C255.322 24.4017 258.678 22.7623 258.678 22.7623L259.182 22.9055L255.706 24.6461L255.258 24.4032L255.26 24.403Z" fill="white"/>
<path d="M256.942 25.3287L260.736 23.3546L259.905 23.1137L256.179 24.9032L256.942 25.3287Z" fill="white"/>
</g>
<defs>
<filter id="filter0_d_258_126" x="-10" y="-4.99976" width="380.817" height="287.227" filterUnits="userSpaceOnUse" color-interpolation-filters="sRGB">
<feFlood flood-opacity="0" result="BackgroundImageFix"/>
<feColorMatrix in="SourceAlpha" type="matrix" values="0 0 0 0 0 0 0 0 0 0 0 0 0 0 0 0 0 0 127 0" result="hardAlpha"/>
<feOffset dy="16"/>
<feGaussianBlur stdDeviation="12"/>
<feColorMatrix type="matrix" values="0 0 0 0 0 0 0 0 0 0 0 0 0 0 0 0 0 0 0.24 0"/>
<feBlend mode="normal" in2="BackgroundImageFix" result="effect1_dropShadow_258_126"/>
<feBlend mode="normal" in="SourceGraphic" in2="effect1_dropShadow_258_126" result="shape"/>
</filter>
<linearGradient id="paint0_linear_258_126" x1="60.3672" y1="136.035" x2="70.5279" y2="235.944" gradientUnits="userSpaceOnUse">
<stop stop-color="#FF004F"/>
<stop offset="1" stop-color="#FF004F" stop-opacity="0.5"/>
</linearGradient>
<linearGradient id="paint1_linear_258_126" x1="127.525" y1="171.078" x2="133.671" y2="231.518" gradientUnits="userSpaceOnUse">
<stop stop-color="#FF004F"/>
<stop offset="1" stop-color="#FF004F" stop-opacity="0.5"/>
</linearGradient>
<linearGradient id="paint2_linear_258_126" x1="44.6603" y1="110.579" x2="47.6695" y2="140.167" gradientUnits="userSpaceOnUse">
<stop stop-color="#FF004F"/>
<stop offset="1" stop-color="#FF004F" stop-opacity="0.5"/>
</linearGradient>
<linearGradient id="paint3_linear_258_126" x1="92.029" y1="85.7732" x2="114.565" y2="103.029" gradientUnits="userSpaceOnUse">
<stop stop-color="#FF004F"/>
<stop offset="1" stop-color="#FF004F" stop-opacity="0.5"/>
</linearGradient>
<linearGradient id="paint4_linear_258_126" x1="237.283" y1="70.5731" x2="241.583" y2="112.852" gradientUnits="userSpaceOnUse">
<stop stop-color="#FF004F"/>
<stop offset="1" stop-color="#FF004F" stop-opacity="0.5"/>
</linearGradient>
<linearGradient id="paint5_linear_258_126" x1="127.438" y1="74.9702" x2="136.412" y2="163.219" gradientUnits="userSpaceOnUse">
<stop stop-color="#FF004F"/>
<stop offset="1" stop-color="#FF004F" stop-opacity="0.5"/>
</linearGradient>
<linearGradient id="paint6_linear_258_126" x1="90.199" y1="106.283" x2="93.7987" y2="141.678" gradientUnits="userSpaceOnUse">
<stop stop-color="#FF004F"/>
<stop offset="1" stop-color="#FF004F" stop-opacity="0.5"/>
</linearGradient>
<linearGradient id="paint7_linear_258_126" x1="40.2992" y1="171.538" x2="41.3058" y2="181.435" gradientUnits="userSpaceOnUse">
<stop stop-color="#FF004F"/>
<stop offset="1" stop-color="#FF004F" stop-opacity="0.5"/>
</linearGradient>
<linearGradient id="paint8_linear_258_126" x1="191.781" y1="70.1339" x2="194.712" y2="98.9533" gradientUnits="userSpaceOnUse">
<stop stop-color="#FF004F"/>
<stop offset="1" stop-color="#FF004F" stop-opacity="0.5"/>
</linearGradient>
<linearGradient id="paint9_linear_258_126" x1="171.892" y1="82.4965" x2="174.097" y2="104.182" gradientUnits="userSpaceOnUse">
<stop stop-color="#FF004F"/>
<stop offset="1" stop-color="#FF004F" stop-opacity="0.5"/>
</linearGradient>
<linearGradient id="paint10_linear_258_126" x1="163.982" y1="86.4223" x2="166.159" y2="107.83" gradientUnits="userSpaceOnUse">
<stop stop-color="#FF004F"/>
<stop offset="1" stop-color="#FF004F" stop-opacity="0.5"/>
</linearGradient>
<linearGradient id="paint11_linear_258_126" x1="155.785" y1="91.2995" x2="157.829" y2="111.392" gradientUnits="userSpaceOnUse">
<stop stop-color="#FF004F"/>
<stop offset="1" stop-color="#FF004F" stop-opacity="0.5"/>
</linearGradient>
<linearGradient id="paint12_linear_258_126" x1="248.435" y1="38.689" x2="249.252" y2="46.7186" gradientUnits="userSpaceOnUse">
<stop stop-color="#FF004F"/>
<stop offset="1" stop-color="#FF004F" stop-opacity="0.5"/>
</linearGradient>
<linearGradient id="paint13_linear_258_126" x1="247.531" y1="41.0839" x2="248.895" y2="54.4988" gradientUnits="userSpaceOnUse">
<stop stop-color="#FF004F"/>
<stop offset="1" stop-color="#FF004F" stop-opacity="0.5"/>
</linearGradient>
<linearGradient id="paint14_linear_258_126" x1="252.982" y1="42.2837" x2="253.602" y2="48.3843" gradientUnits="userSpaceOnUse">
<stop stop-color="#FF004F"/>
<stop offset="1" stop-color="#FF004F" stop-opacity="0.5"/>
</linearGradient>
<linearGradient id="paint15_linear_258_126" x1="200.535" y1="140.613" x2="229.168" y2="148.131" gradientUnits="userSpaceOnUse">
<stop stop-color="#FF004F"/>
<stop offset="1" stop-color="#FF004F" stop-opacity="0.5"/>
</linearGradient>
<linearGradient id="paint16_linear_258_126" x1="207.108" y1="142.525" x2="226.326" y2="147.571" gradientUnits="userSpaceOnUse">
<stop stop-color="#FF004F"/>
<stop offset="1" stop-color="#FF004F" stop-opacity="0.5"/>
</linearGradient>
<linearGradient id="paint17_linear_258_126" x1="225.032" y1="18.1037" x2="226.219" y2="29.7749" gradientUnits="userSpaceOnUse">
<stop stop-color="#FF004F"/>
<stop offset="1" stop-color="#FF004F" stop-opacity="0.5"/>
</linearGradient>
<linearGradient id="paint18_linear_258_126" x1="192.648" y1="53.2652" x2="193.158" y2="58.275" gradientUnits="userSpaceOnUse">
<stop stop-color="#FF004F"/>
<stop offset="1" stop-color="#FF004F" stop-opacity="0.5"/>
</linearGradient>
<linearGradient id="paint19_linear_258_126" x1="227.391" y1="54.6779" x2="228.063" y2="61.2875" gradientUnits="userSpaceOnUse">
<stop stop-color="#FF004F"/>
<stop offset="1" stop-color="#FF004F" stop-opacity="0.5"/>
</linearGradient>
<linearGradient id="paint20_linear_258_126" x1="166.063" y1="45.8046" x2="166.674" y2="51.8169" gradientUnits="userSpaceOnUse">
<stop stop-color="#FF004F"/>
<stop offset="1" stop-color="#FF004F" stop-opacity="0.5"/>
</linearGradient>
<linearGradient id="paint21_linear_258_126" x1="262.834" y1="33.7243" x2="263.389" y2="39.1759" gradientUnits="userSpaceOnUse">
<stop stop-color="#FF004F"/>
<stop offset="1" stop-color="#FF004F" stop-opacity="0.5"/>
</linearGradient>
<linearGradient id="paint22_linear_258_126" x1="264.173" y1="34.977" x2="264.757" y2="40.7158" gradientUnits="userSpaceOnUse">
<stop stop-color="#FF004F"/>
<stop offset="1" stop-color="#FF004F" stop-opacity="0.5"/>
</linearGradient>
<linearGradient id="paint23_linear_258_126" x1="245.477" y1="17.4194" x2="247.003" y2="32.42" gradientUnits="userSpaceOnUse">
<stop stop-color="#FF004F"/>
<stop offset="1" stop-color="#FF004F" stop-opacity="0.5"/>
</linearGradient>
<linearGradient id="paint24_linear_258_126" x1="250.468" y1="10.651" x2="251.658" y2="22.3542" gradientUnits="userSpaceOnUse">
<stop stop-color="#FF004F"/>
<stop offset="1" stop-color="#FF004F" stop-opacity="0.5"/>
</linearGradient>
<linearGradient id="paint25_linear_258_126" x1="276.706" y1="12.2374" x2="277.38" y2="18.8643" gradientUnits="userSpaceOnUse">
<stop stop-color="#FF004F"/>
<stop offset="1" stop-color="#FF004F" stop-opacity="0.5"/>
</linearGradient>
<linearGradient id="paint26_linear_258_126" x1="306.082" y1="9.34718" x2="308.048" y2="28.6834" gradientUnits="userSpaceOnUse">
<stop stop-color="#FF004F"/>
<stop offset="1" stop-color="#FF004F" stop-opacity="0.5"/>
</linearGradient>
<linearGradient id="paint27_linear_258_126" x1="304.468" y1="25.7601" x2="304.996" y2="30.951" gradientUnits="userSpaceOnUse">
<stop stop-color="#FF004F"/>
<stop offset="1" stop-color="#FF004F" stop-opacity="0.5"/>
</linearGradient>
<linearGradient id="paint28_linear_258_126" x1="318.066" y1="53.3313" x2="328.467" y2="55.383" gradientUnits="userSpaceOnUse">
<stop stop-color="#FF004F"/>
<stop offset="1" stop-color="#FF004F" stop-opacity="0.5"/>
</linearGradient>
<linearGradient id="paint29_linear_258_126" x1="254.659" y1="17.7185" x2="256.186" y2="32.7368" gradientUnits="userSpaceOnUse">
<stop stop-color="#FF004F"/>
<stop offset="1" stop-color="#FF004F" stop-opacity="0.5"/>
</linearGradient>
</defs>
</svg>
